<svg width="3194" height="3185" viewBox="0 0 3194 3185" fill="none" xmlns="http://www.w3.org/2000/svg">
<rect x="576" y="3185" width="566" height="35" transform="rotate(-90 576 3185)" fill="white"/>
<rect x="641" y="3185" width="566" height="35" transform="rotate(-90 641 3185)" fill="white"/>
<rect x="706" y="3185" width="566" height="35" transform="rotate(-90 706 3185)" fill="white"/>
<rect x="771" y="3185" width="566" height="35" transform="rotate(-90 771 3185)" fill="white"/>
<rect x="836" y="3185" width="566" height="35" transform="rotate(-90 836 3185)" fill="white"/>
<rect x="901" y="3185" width="566" height="35" transform="rotate(-90 901 3185)" fill="white"/>
<rect x="966" y="3185" width="566" height="35" transform="rotate(-90 966 3185)" fill="white"/>
<rect x="1031" y="3185" width="566" height="35" transform="rotate(-90 1031 3185)" fill="white"/>
<rect x="1096" y="3185" width="566" height="35" transform="rotate(-90 1096 3185)" fill="white"/>
<rect x="1161" y="3185" width="566" height="35" transform="rotate(-90 1161 3185)" fill="white"/>
<rect x="1226" y="3185" width="566" height="35" transform="rotate(-90 1226 3185)" fill="white"/>
<rect x="1291" y="3185" width="566" height="35" transform="rotate(-90 1291 3185)" fill="white"/>
<rect x="1356" y="3185" width="566" height="35" transform="rotate(-90 1356 3185)" fill="white"/>
<rect x="1421" y="3185" width="566" height="35" transform="rotate(-90 1421 3185)" fill="white"/>
<rect x="1486" y="3185" width="566" height="35" transform="rotate(-90 1486 3185)" fill="white"/>
<rect x="1551" y="3185" width="566" height="35" transform="rotate(-90 1551 3185)" fill="white"/>
<rect x="1616" y="3185" width="566" height="35" transform="rotate(-90 1616 3185)" fill="white"/>
<rect x="1681" y="3185" width="566" height="35" transform="rotate(-90 1681 3185)" fill="white"/>
<rect x="1746" y="3185" width="566" height="35" transform="rotate(-90 1746 3185)" fill="white"/>
<rect x="1811" y="3185" width="566" height="35" transform="rotate(-90 1811 3185)" fill="white"/>
<rect x="1876" y="3185" width="566" height="35" transform="rotate(-90 1876 3185)" fill="white"/>
<rect x="1941" y="3185" width="566" height="35" transform="rotate(-90 1941 3185)" fill="white"/>
<rect x="2006" y="3185" width="566" height="35" transform="rotate(-90 2006 3185)" fill="white"/>
<rect x="2071" y="3185" width="566" height="35" transform="rotate(-90 2071 3185)" fill="white"/>
<rect x="2136" y="3185" width="566" height="35" transform="rotate(-90 2136 3185)" fill="white"/>
<rect x="2201" y="3185" width="566" height="35" transform="rotate(-90 2201 3185)" fill="white"/>
<rect x="2266" y="3185" width="566" height="35" transform="rotate(-90 2266 3185)" fill="white"/>
<rect x="2331" y="3185" width="566" height="35" transform="rotate(-90 2331 3185)" fill="white"/>
<rect x="2396" y="3185" width="566" height="35" transform="rotate(-90 2396 3185)" fill="white"/>
<rect x="2461" y="3185" width="566" height="35" transform="rotate(-90 2461 3185)" fill="white"/>
<rect x="2526" y="3185" width="566" height="35" transform="rotate(-90 2526 3185)" fill="white"/>
<rect x="2591" y="3185" width="566" height="35" transform="rotate(-90 2591 3185)" fill="white"/>
<rect x="591" y="566" width="566" height="35" transform="rotate(-90 591 566)" fill="white"/>
<rect x="656" y="566" width="566" height="35" transform="rotate(-90 656 566)" fill="white"/>
<rect x="721" y="566" width="566" height="35" transform="rotate(-90 721 566)" fill="white"/>
<rect x="786" y="566" width="566" height="35" transform="rotate(-90 786 566)" fill="white"/>
<rect x="851" y="566" width="566" height="35" transform="rotate(-90 851 566)" fill="white"/>
<rect x="916" y="566" width="566" height="35" transform="rotate(-90 916 566)" fill="white"/>
<rect x="981" y="566" width="566" height="35" transform="rotate(-90 981 566)" fill="white"/>
<rect x="1046" y="566" width="566" height="35" transform="rotate(-90 1046 566)" fill="white"/>
<rect x="1111" y="566" width="566" height="35" transform="rotate(-90 1111 566)" fill="white"/>
<rect x="1176" y="566" width="566" height="35" transform="rotate(-90 1176 566)" fill="white"/>
<rect x="1241" y="566" width="566" height="35" transform="rotate(-90 1241 566)" fill="white"/>
<rect x="1306" y="566" width="566" height="35" transform="rotate(-90 1306 566)" fill="white"/>
<rect x="1371" y="566" width="566" height="35" transform="rotate(-90 1371 566)" fill="white"/>
<rect x="1436" y="566" width="566" height="35" transform="rotate(-90 1436 566)" fill="white"/>
<rect x="1501" y="566" width="566" height="35" transform="rotate(-90 1501 566)" fill="white"/>
<rect x="1566" y="566" width="566" height="35" transform="rotate(-90 1566 566)" fill="white"/>
<rect x="1631" y="566" width="566" height="35" transform="rotate(-90 1631 566)" fill="white"/>
<rect x="1696" y="566" width="566" height="35" transform="rotate(-90 1696 566)" fill="white"/>
<rect x="1761" y="566" width="566" height="35" transform="rotate(-90 1761 566)" fill="white"/>
<rect x="1826" y="566" width="566" height="35" transform="rotate(-90 1826 566)" fill="white"/>
<rect x="1891" y="566" width="566" height="35" transform="rotate(-90 1891 566)" fill="white"/>
<rect x="1956" y="566" width="566" height="35" transform="rotate(-90 1956 566)" fill="white"/>
<rect x="2021" y="566" width="566" height="35" transform="rotate(-90 2021 566)" fill="white"/>
<rect x="2086" y="566" width="566" height="35" transform="rotate(-90 2086 566)" fill="white"/>
<rect x="2151" y="566" width="566" height="35" transform="rotate(-90 2151 566)" fill="white"/>
<rect x="2216" y="566" width="566" height="35" transform="rotate(-90 2216 566)" fill="white"/>
<rect x="2281" y="566" width="566" height="35" transform="rotate(-90 2281 566)" fill="white"/>
<rect x="2346" y="566" width="566" height="35" transform="rotate(-90 2346 566)" fill="white"/>
<rect x="2411" y="566" width="566" height="35" transform="rotate(-90 2411 566)" fill="white"/>
<rect x="2476" y="566" width="566" height="35" transform="rotate(-90 2476 566)" fill="white"/>
<rect x="2541" y="566" width="566" height="35" transform="rotate(-90 2541 566)" fill="white"/>
<rect x="2606" y="566" width="566" height="35" transform="rotate(-90 2606 566)" fill="white"/>
<rect x="1016.86" y="2590" width="566" height="35" transform="rotate(-135.813 1016.86 2590)" fill="white"/>
<rect x="1062.16" y="2543.39" width="566" height="35" transform="rotate(-135.813 1062.16 2543.39)" fill="white"/>
<rect x="1107.47" y="2496.78" width="566" height="35" transform="rotate(-135.813 1107.47 2496.78)" fill="white"/>
<rect x="1152.78" y="2450.17" width="566" height="35" transform="rotate(-135.813 1152.78 2450.17)" fill="white"/>
<rect x="1198.08" y="2403.56" width="566" height="35" transform="rotate(-135.813 1198.08 2403.56)" fill="white"/>
<rect x="1243.39" y="2356.95" width="566" height="35" transform="rotate(-135.813 1243.39 2356.95)" fill="white"/>
<rect x="1288.69" y="2310.34" width="566" height="35" transform="rotate(-135.813 1288.69 2310.34)" fill="white"/>
<rect x="1334" y="2263.73" width="566" height="35" transform="rotate(-135.813 1334 2263.73)" fill="white"/>
<rect x="1379.3" y="2217.13" width="566" height="35" transform="rotate(-135.813 1379.3 2217.13)" fill="white"/>
<rect x="1424.61" y="2170.52" width="566" height="35" transform="rotate(-135.813 1424.61 2170.52)" fill="white"/>
<rect x="1469.91" y="2123.91" width="566" height="35" transform="rotate(-135.813 1469.91 2123.91)" fill="white"/>
<rect x="1515.22" y="2077.3" width="566" height="35" transform="rotate(-135.813 1515.22 2077.3)" fill="white"/>
<rect x="1560.52" y="2030.69" width="566" height="35" transform="rotate(-135.813 1560.52 2030.69)" fill="white"/>
<rect x="1605.83" y="1984.08" width="566" height="35" transform="rotate(-135.813 1605.83 1984.08)" fill="white"/>
<rect x="1651.13" y="1937.47" width="566" height="35" transform="rotate(-135.813 1651.13 1937.47)" fill="white"/>
<rect x="1696.44" y="1890.86" width="566" height="35" transform="rotate(-135.813 1696.44 1890.86)" fill="white"/>
<rect x="1741.74" y="1844.25" width="566" height="35" transform="rotate(-135.813 1741.74 1844.25)" fill="white"/>
<rect x="1787.05" y="1797.64" width="566" height="35" transform="rotate(-135.813 1787.05 1797.64)" fill="white"/>
<rect x="1832.36" y="1751.03" width="566" height="35" transform="rotate(-135.813 1832.36 1751.03)" fill="white"/>
<rect x="1877.66" y="1704.42" width="566" height="35" transform="rotate(-135.813 1877.66 1704.42)" fill="white"/>
<rect x="1922.97" y="1657.81" width="566" height="35" transform="rotate(-135.813 1922.97 1657.81)" fill="white"/>
<rect x="1968.27" y="1611.2" width="566" height="35" transform="rotate(-135.813 1968.27 1611.2)" fill="white"/>
<rect x="2013.58" y="1564.6" width="566" height="35" transform="rotate(-135.813 2013.58 1564.6)" fill="white"/>
<rect x="2058.88" y="1517.99" width="566" height="35" transform="rotate(-135.813 2058.88 1517.99)" fill="white"/>
<rect x="2104.19" y="1471.38" width="566" height="35" transform="rotate(-135.813 2104.19 1471.38)" fill="white"/>
<rect x="2149.49" y="1424.77" width="566" height="35" transform="rotate(-135.813 2149.49 1424.77)" fill="white"/>
<rect x="2194.8" y="1378.16" width="566" height="35" transform="rotate(-135.813 2194.8 1378.16)" fill="white"/>
<rect x="2240.1" y="1331.55" width="566" height="35" transform="rotate(-135.813 2240.1 1331.55)" fill="white"/>
<rect x="2285.41" y="1284.94" width="566" height="35" transform="rotate(-135.813 2285.41 1284.94)" fill="white"/>
<rect x="2330.71" y="1238.33" width="566" height="35" transform="rotate(-135.813 2330.71 1238.33)" fill="white"/>
<rect x="2376.02" y="1191.72" width="566" height="35" transform="rotate(-135.813 2376.02 1191.72)" fill="white"/>
<rect x="2421.32" y="1145.11" width="566" height="35" transform="rotate(-135.813 2421.32 1145.11)" fill="white"/>
<rect x="2461.86" y="1098" width="566" height="35" transform="rotate(-135.813 2461.86 1098)" fill="white"/>
<rect x="2507.17" y="1051.39" width="566" height="35" transform="rotate(-135.813 2507.17 1051.39)" fill="white"/>
<rect x="2552.47" y="1004.78" width="566" height="35" transform="rotate(-135.813 2552.47 1004.78)" fill="white"/>
<rect x="2627.95" y="553.462" width="566" height="35" transform="rotate(0.0545234 2627.95 553.462)" fill="white"/>
<rect x="2627.89" y="618.462" width="566" height="35" transform="rotate(0.0545234 2627.89 618.462)" fill="white"/>
<rect x="2627.83" y="683.462" width="566" height="35" transform="rotate(0.0545234 2627.83 683.462)" fill="white"/>
<rect x="2627.77" y="748.462" width="566" height="35" transform="rotate(0.0545234 2627.77 748.462)" fill="white"/>
<rect x="2627.7" y="813.462" width="566" height="35" transform="rotate(0.0545234 2627.7 813.462)" fill="white"/>
<rect x="2627.64" y="878.462" width="566" height="35" transform="rotate(0.0545234 2627.64 878.462)" fill="white"/>
<rect x="2627.58" y="943.462" width="566" height="35" transform="rotate(0.0545234 2627.58 943.462)" fill="white"/>
<rect x="2627.52" y="1008.46" width="566" height="35" transform="rotate(0.0545234 2627.52 1008.46)" fill="white"/>
<rect x="2627.46" y="1073.46" width="566" height="35" transform="rotate(0.0545234 2627.46 1073.46)" fill="white"/>
<rect x="2627.39" y="1138.46" width="566" height="35" transform="rotate(0.0545234 2627.39 1138.46)" fill="white"/>
<rect x="2627.33" y="1203.46" width="566" height="35" transform="rotate(0.0545234 2627.33 1203.46)" fill="white"/>
<rect x="2627.27" y="1268.46" width="566" height="35" transform="rotate(0.0545234 2627.27 1268.46)" fill="white"/>
<rect x="2627.21" y="1333.46" width="566" height="35" transform="rotate(0.0545234 2627.21 1333.46)" fill="white"/>
<rect x="2627.15" y="1398.46" width="566" height="35" transform="rotate(0.0545234 2627.15 1398.46)" fill="white"/>
<rect x="2627.08" y="1463.46" width="566" height="35" transform="rotate(0.0545234 2627.08 1463.46)" fill="white"/>
<rect x="2627.02" y="1528.46" width="566" height="35" transform="rotate(0.0545234 2627.02 1528.46)" fill="white"/>
<rect x="2626.96" y="1593.46" width="566" height="35" transform="rotate(0.0545234 2626.96 1593.46)" fill="white"/>
<rect x="2626.9" y="1658.46" width="566" height="35" transform="rotate(0.0545234 2626.9 1658.46)" fill="white"/>
<rect x="2626.84" y="1723.46" width="566" height="35" transform="rotate(0.0545234 2626.84 1723.46)" fill="white"/>
<rect x="2626.78" y="1788.46" width="566" height="35" transform="rotate(0.0545234 2626.78 1788.46)" fill="white"/>
<rect x="2626.71" y="1853.46" width="566" height="35" transform="rotate(0.0545234 2626.71 1853.46)" fill="white"/>
<rect x="2626.65" y="1918.46" width="566" height="35" transform="rotate(0.0545234 2626.65 1918.46)" fill="white"/>
<rect x="2626.59" y="1983.46" width="566" height="35" transform="rotate(0.0545234 2626.59 1983.46)" fill="white"/>
<rect x="2626.53" y="2048.46" width="566" height="35" transform="rotate(0.0545234 2626.53 2048.46)" fill="white"/>
<rect x="2626.47" y="2113.46" width="566" height="35" transform="rotate(0.0545234 2626.47 2113.46)" fill="white"/>
<rect x="2626.4" y="2178.46" width="566" height="35" transform="rotate(0.0545234 2626.4 2178.46)" fill="white"/>
<rect x="2626.34" y="2243.46" width="566" height="35" transform="rotate(0.0545234 2626.34 2243.46)" fill="white"/>
<rect x="2626.28" y="2308.46" width="566" height="35" transform="rotate(0.0545234 2626.28 2308.46)" fill="white"/>
<rect x="2626.22" y="2373.46" width="566" height="35" transform="rotate(0.0545234 2626.22 2373.46)" fill="white"/>
<rect x="2626.16" y="2438.46" width="566" height="35" transform="rotate(0.0545234 2626.16 2438.46)" fill="white"/>
<rect x="2626.1" y="2503.46" width="566" height="35" transform="rotate(0.0545234 2626.1 2503.46)" fill="white"/>
<rect x="2626.03" y="2568.46" width="566" height="35" transform="rotate(0.0545234 2626.03 2568.46)" fill="white"/>
<rect y="569.022" width="566" height="35" transform="rotate(-0.267971 0 569.022)" fill="white"/>
<rect x="0.304199" y="634.022" width="566" height="35" transform="rotate(-0.267971 0.304199 634.022)" fill="white"/>
<rect x="0.60791" y="699.021" width="566" height="35" transform="rotate(-0.267971 0.60791 699.021)" fill="white"/>
<rect x="0.912109" y="764.02" width="566" height="35" transform="rotate(-0.267971 0.912109 764.02)" fill="white"/>
<rect x="1.21582" y="829.02" width="566" height="35" transform="rotate(-0.267971 1.21582 829.02)" fill="white"/>
<rect x="1.52002" y="894.019" width="566" height="35" transform="rotate(-0.267971 1.52002 894.019)" fill="white"/>
<rect x="1.82422" y="959.018" width="566" height="35" transform="rotate(-0.267971 1.82422 959.018)" fill="white"/>
<rect x="2.12793" y="1024.02" width="566" height="35" transform="rotate(-0.267971 2.12793 1024.02)" fill="white"/>
<rect x="2.43164" y="1089.02" width="566" height="35" transform="rotate(-0.267971 2.43164 1089.02)" fill="white"/>
<rect x="2.73633" y="1154.02" width="566" height="35" transform="rotate(-0.267971 2.73633 1154.02)" fill="white"/>
<rect x="3.04004" y="1219.02" width="566" height="35" transform="rotate(-0.267971 3.04004 1219.02)" fill="white"/>
<rect x="3.34375" y="1284.01" width="566" height="35" transform="rotate(-0.267971 3.34375 1284.01)" fill="white"/>
<rect x="3.64795" y="1349.01" width="566" height="35" transform="rotate(-0.267971 3.64795 1349.01)" fill="white"/>
<rect x="3.95215" y="1414.01" width="566" height="35" transform="rotate(-0.267971 3.95215 1414.01)" fill="white"/>
<rect x="4.25586" y="1479.01" width="566" height="35" transform="rotate(-0.267971 4.25586 1479.01)" fill="white"/>
<rect x="4.56006" y="1544.01" width="566" height="35" transform="rotate(-0.267971 4.56006 1544.01)" fill="white"/>
<rect x="4.86426" y="1609.01" width="566" height="35" transform="rotate(-0.267971 4.86426 1609.01)" fill="white"/>
<rect x="5.16797" y="1674.01" width="566" height="35" transform="rotate(-0.267971 5.16797 1674.01)" fill="white"/>
<rect x="5.47168" y="1739.01" width="566" height="35" transform="rotate(-0.267971 5.47168 1739.01)" fill="white"/>
<rect x="5.77637" y="1804.01" width="566" height="35" transform="rotate(-0.267971 5.77637 1804.01)" fill="white"/>
<rect x="6.08008" y="1869.01" width="566" height="35" transform="rotate(-0.267971 6.08008 1869.01)" fill="white"/>
<rect x="6.38379" y="1934.01" width="566" height="35" transform="rotate(-0.267971 6.38379 1934.01)" fill="white"/>
<rect x="6.68799" y="1999.01" width="566" height="35" transform="rotate(-0.267971 6.68799 1999.01)" fill="white"/>
<rect x="6.99219" y="2064.01" width="566" height="35" transform="rotate(-0.267971 6.99219 2064.01)" fill="white"/>
<rect x="7.2959" y="2129.01" width="566" height="35" transform="rotate(-0.267971 7.2959 2129.01)" fill="white"/>
<rect x="7.6001" y="2194" width="566" height="35" transform="rotate(-0.267971 7.6001 2194)" fill="white"/>
<rect x="7.9043" y="2259" width="566" height="35" transform="rotate(-0.267971 7.9043 2259)" fill="white"/>
<rect x="8.20801" y="2324" width="566" height="35" transform="rotate(-0.267971 8.20801 2324)" fill="white"/>
<rect x="8.51172" y="2389" width="566" height="35" transform="rotate(-0.267971 8.51172 2389)" fill="white"/>
<rect x="8.81641" y="2454" width="566" height="35" transform="rotate(-0.267971 8.81641 2454)" fill="white"/>
<rect x="9.12012" y="2519" width="566" height="35" transform="rotate(-0.267971 9.12012 2519)" fill="white"/>
<rect x="9.42383" y="2584" width="566" height="35" transform="rotate(-0.267971 9.42383 2584)" fill="white"/>
</svg>
